<svg width="20" height="20" viewBox="0 0 20 20" fill="none" xmlns="http://www.w3.org/2000/svg">
<g clip-path="url(#clip0_33_7758)">
<path d="M11.0167 18.8418C10.6833 18.9668 10.35 19.0835 10 19.1668C5.7 18.1168 2.5 13.7918 2.5 9.16683V4.16683L10 0.833496L17.5 4.16683V9.16683C17.5 9.91683 17.4083 10.6502 17.25 11.3752C16.575 11.0335 15.8083 10.8335 15 10.8335C12.2417 10.8335 10 13.0752 10 15.8335C10 16.9668 10.3833 18.0085 11.0167 18.8418ZM15.8333 16.6668V19.1585C15.8333 19.1585 14.175 19.1668 14.1667 19.1585V16.6668H11.6667V15.0002H14.1667V12.5002H15.8333V15.0002H18.3333V16.6668H15.8333Z" fill="#E8E8E8"/>
</g>
<defs>
<clipPath id="clip0_33_7758">
<rect width="20" height="20" fill="white"/>
</clipPath>
</defs>
</svg>
